<svg width="24" height="24" viewBox="0 0 24 24" fill="none" xmlns="http://www.w3.org/2000/svg">
<path d="M12 0.999953C9.11346 0.970621 6.33338 2.08856 4.27073 4.10808C2.20809 6.12759 1.03166 8.88344 1 11.77C1.01112 14.0511 1.74494 16.2701 3.09606 18.1081C4.44718 19.9461 6.34608 21.3086 8.52 22C9.07 22.1 9.27 21.77 9.27 21.48V19.65C6.21 20.3 5.56 18.21 5.56 18.21C5.3563 17.5539 4.92323 16.993 4.34 16.63C3.34 15.97 4.42 15.98 4.42 15.98C4.76565 16.0262 5.09635 16.15 5.38731 16.3423C5.67826 16.5345 5.92192 16.7901 6.1 17.09C6.41033 17.6281 6.91953 18.0228 7.51801 18.1893C8.11649 18.3557 8.75639 18.2806 9.3 17.98C9.35591 17.4323 9.60389 16.9222 10 16.54C7.56 16.27 5 15.35 5 11.22C4.97818 10.1426 5.37624 9.09906 6.11 8.30995C5.77583 7.38502 5.81529 6.36627 6.22 5.46995C6.22 5.46995 7.15 5.17995 9.22 6.56995C11.0219 6.08979 12.9181 6.08979 14.72 6.56995C16.82 5.17995 17.72 5.46995 17.72 5.46995C18.1247 6.36627 18.1642 7.38502 17.83 8.30995C18.5808 9.0846 19.0005 10.1212 19 11.2C19 15.34 16.42 16.25 14 16.52C14.265 16.7772 14.4697 17.09 14.5994 17.4358C14.729 17.7816 14.7805 18.1519 14.75 18.52V21.47C14.75 21.82 14.95 22.1 15.5 21.99C17.6678 21.2944 19.5603 19.9315 20.9072 18.0961C22.2541 16.2607 22.9866 14.0465 23 11.77C22.9683 8.88344 21.7919 6.12759 19.7293 4.10808C17.6666 2.08856 14.8865 0.970621 12 0.999953Z" fill="white"/>
</svg>
