<svg width="147" height="147" viewBox="0 0 147 147" fill="none" xmlns="http://www.w3.org/2000/svg">
<path d="M75.0657 134.264H74.4554C66.0854 134.2 57.8123 132.467 50.1204 129.166C42.4286 125.865 35.4727 121.063 29.66 115.04C18.8813 103.513 12.7542 88.4026 12.4612 72.6242C12.1682 56.8458 17.73 41.518 28.0733 29.5991C34.7369 22.1312 43.1141 16.3929 52.4849 12.8771C53.5784 12.4564 54.7698 12.3592 55.9169 12.5973C57.064 12.8354 58.1184 13.3986 58.954 14.2198C59.728 15.009 60.2731 15.9936 60.531 17.0685C60.789 18.1434 60.7502 19.2681 60.4187 20.3227C57.0741 29.4827 56.4114 39.4068 58.5085 48.9302C60.6056 58.4537 65.3755 67.1814 72.2584 74.0894C79.2055 80.9511 87.954 85.7049 97.491 87.8002C107.028 89.8956 116.964 89.2468 126.147 85.929C127.24 85.5443 128.42 85.4786 129.549 85.7399C130.678 86.0011 131.71 86.5783 132.523 87.4041C133.336 88.2299 133.897 89.2701 134.14 90.403C134.384 91.536 134.3 92.7148 133.898 93.8018C130.78 102.124 125.91 109.68 119.617 115.955C113.763 121.792 106.814 126.414 99.1684 129.556C91.5228 132.698 83.3317 134.298 75.0657 134.264Z" fill="white"/>
</svg>
