<svg width="24" height="24" viewBox="0 0 24 24" fill="none" xmlns="http://www.w3.org/2000/svg">
<path d="M13.67 22.0001H13.61C13.3899 21.9868 13.1804 21.9012 13.014 21.7565C12.8476 21.6118 12.7337 21.4162 12.69 21.2001L11.15 13.6301C11.1108 13.4379 11.016 13.2615 10.8773 13.1228C10.7386 12.9841 10.5622 12.8893 10.37 12.8501L2.80001 11.3101C2.58348 11.2671 2.38727 11.1536 2.24197 10.9874C2.09666 10.8212 2.01044 10.6116 1.99674 10.3913C1.98304 10.1709 2.04264 9.95227 2.16623 9.76935C2.28983 9.58643 2.47048 9.44956 2.68001 9.38006L18.68 4.05006C18.8596 3.9759 19.0569 3.95567 19.2478 3.99185C19.4387 4.02802 19.615 4.11903 19.755 4.25374C19.895 4.38846 19.9928 4.56105 20.0363 4.75042C20.0798 4.93979 20.0672 5.13773 20 5.32006L14.67 21.3201C14.6004 21.527 14.465 21.7056 14.2844 21.8283C14.1039 21.9511 13.8881 22.0114 13.67 22.0001Z" fill="white"/>
</svg>
