<svg width="148" height="147" viewBox="0 0 148 147" fill="none" xmlns="http://www.w3.org/2000/svg">
<path d="M74.0455 36.8835C75.6641 36.8835 77.2163 36.2405 78.3608 35.096C79.5053 33.9515 80.1483 32.3993 80.1483 30.7807V18.5752C80.1483 16.9566 79.5053 15.4044 78.3608 14.2599C77.2163 13.1154 75.6641 12.4724 74.0455 12.4724C72.427 12.4724 70.8747 13.1154 69.7302 14.2599C68.5857 15.4044 67.9427 16.9566 67.9427 18.5752V30.7807C67.9427 32.3993 68.5857 33.9515 69.7302 35.096C70.8747 36.2405 72.427 36.8835 74.0455 36.8835Z" fill="white"/>
<path d="M128.97 67.3972H116.765C115.146 67.3972 113.594 68.0402 112.45 69.1847C111.305 70.3292 110.662 71.8814 110.662 73.5C110.662 75.1185 111.305 76.6708 112.45 77.8153C113.594 78.9598 115.146 79.6027 116.765 79.6027H128.97C130.589 79.6027 132.141 78.9598 133.286 77.8153C134.43 76.6708 135.073 75.1185 135.073 73.5C135.073 71.8814 134.43 70.3292 133.286 69.1847C132.141 68.0402 130.589 67.3972 128.97 67.3972Z" fill="white"/>
<path d="M37.4289 73.5C37.4289 71.8814 36.786 70.3292 35.6415 69.1847C34.497 68.0402 32.9447 67.3972 31.3262 67.3972H19.1206C17.5021 67.3972 15.9498 68.0402 14.8053 69.1847C13.6609 70.3292 13.0179 71.8814 13.0179 73.5C13.0179 75.1185 13.6609 76.6708 14.8053 77.8153C15.9498 78.9598 17.5021 79.6027 19.1206 79.6027H31.3262C32.9447 79.6027 34.497 78.9598 35.6415 77.8153C36.786 76.6708 37.4289 75.1185 37.4289 73.5Z" fill="white"/>
<path d="M38.7715 30.7808C37.5818 29.6559 35.9941 29.0497 34.3574 29.0954C32.7208 29.1412 31.1694 29.8353 30.0445 31.0249C28.9196 32.2145 28.3134 33.8023 28.3592 35.4389C28.4049 37.0756 29.099 38.627 30.2886 39.7518L39.0766 48.2347C39.6663 48.8041 40.3648 49.2489 41.1302 49.5425C41.8956 49.8361 42.7123 49.9725 43.5316 49.9435C44.3537 49.9403 45.1667 49.7711 45.9217 49.446C46.6768 49.1209 47.3584 48.6466 47.9256 48.0516C49.0623 46.9082 49.7003 45.3614 49.7003 43.7492C49.7003 42.1369 49.0623 40.5901 47.9256 39.4467L38.7715 30.7808Z" fill="white"/>
<path d="M104.559 49.9434C106.131 49.9372 107.639 49.3251 108.77 48.2347L117.558 39.7518C118.63 38.6317 119.236 37.1455 119.252 35.595C119.268 34.0446 118.693 32.5463 117.644 31.4043C116.595 30.2623 115.151 29.5623 113.605 29.4465C112.059 29.3307 110.527 29.8077 109.319 30.7808L100.531 39.4467C99.3948 40.5901 98.7568 42.1369 98.7568 43.7491C98.7568 45.3614 99.3948 46.9082 100.531 48.0516C101.588 49.1667 103.026 49.8422 104.559 49.9434Z" fill="white"/>
<path d="M74.0455 110.116C72.427 110.116 70.8747 110.759 69.7302 111.904C68.5857 113.048 67.9427 114.601 67.9427 116.219V128.425C67.9427 130.043 68.5857 131.596 69.7302 132.74C70.8747 133.885 72.427 134.528 74.0455 134.528C75.6641 134.528 77.2163 133.885 78.3608 132.74C79.5053 131.596 80.1483 130.043 80.1483 128.425V116.219C80.1483 114.601 79.5053 113.048 78.3608 111.904C77.2163 110.759 75.6641 110.116 74.0455 110.116Z" fill="white"/>
<path d="M109.014 98.7654C107.849 97.6405 106.285 97.0246 104.665 97.0532C103.046 97.0818 101.504 97.7526 100.379 98.9179C99.2541 100.083 98.6382 101.648 98.6668 103.267C98.6955 104.887 99.3662 106.428 100.532 107.553L109.32 116.219C110.451 117.31 111.959 117.922 113.53 117.928C114.348 117.933 115.159 117.773 115.913 117.459C116.668 117.144 117.352 116.681 117.924 116.097C118.496 115.53 118.95 114.855 119.26 114.111C119.57 113.368 119.73 112.57 119.73 111.764C119.73 110.959 119.57 110.161 119.26 109.417C118.95 108.674 118.496 107.999 117.924 107.431L109.014 98.7654Z" fill="white"/>
<path d="M39.0766 98.7654L30.2886 107.248C29.7166 107.816 29.2626 108.491 28.9527 109.234C28.6429 109.978 28.4834 110.776 28.4834 111.581C28.4834 112.387 28.6429 113.184 28.9527 113.928C29.2626 114.672 29.7166 115.347 30.2886 115.914C30.861 116.498 31.5449 116.961 32.2997 117.276C33.0545 117.59 33.8649 117.75 34.6826 117.745C36.187 117.758 37.6431 117.214 38.7714 116.219L47.5594 107.736C48.7248 106.612 49.3955 105.07 49.4241 103.45C49.4527 101.831 48.8369 100.266 47.712 99.101C46.5871 97.9357 45.0453 97.2649 43.4259 97.2363C41.8064 97.2077 40.2419 97.8236 39.0766 98.9485V98.7654Z" fill="white"/>
<path d="M74.0455 49.0891C69.2175 49.0891 64.4978 50.5208 60.4835 53.2031C56.4691 55.8854 53.3403 59.6979 51.4927 64.1585C49.645 68.619 49.1616 73.5272 50.1035 78.2625C51.0454 82.9978 53.3704 87.3474 56.7843 90.7614C60.1982 94.1753 64.5479 96.5003 69.2832 97.4422C74.0184 98.3841 78.9267 97.9006 83.3872 96.053C87.8478 94.2054 91.6602 91.0766 94.3426 87.0622C97.0249 83.0478 98.4566 78.3282 98.4566 73.5002C98.4566 67.0259 95.8847 60.8169 91.3067 56.2389C86.7288 51.661 80.5197 49.0891 74.0455 49.0891Z" fill="white"/>
</svg>
